<svg width="21" height="10" viewBox="0 0 21 10" fill="none" xmlns="http://www.w3.org/2000/svg">
<path d="M15.4709 8.96285C16.4692 7.9645 16.4214 7.92265 17.4197 6.92431C18.4181 5.92596 19.5001 5.89111 19.5001 4.94555C19.5001 4 18.4061 3.9771 17.4137 2.97876C16.4214 1.98041 16.4034 1.99237 15.4111 1" stroke="#B3B3B3" stroke-opacity="0.8" stroke-width="1.5" stroke-linecap="round" stroke-linejoin="round"/>
<path d="M19.4284 5.11298C17.6349 5.11298 17.6349 4.99342 15.8415 4.99342C14.0481 4.99342 14.0481 4.79016 12.2606 4.79016C10.4731 4.79016 10.4672 4.93961 8.67373 4.93961C6.8803 4.93961 6.8803 4.81407 5.08687 4.81407C3.29343 4.81407 3.29343 5.05918 1.5 5.05918" stroke="#B3B3B3" stroke-opacity="0.8" stroke-width="1.5" stroke-linecap="round" stroke-linejoin="round"/>
</svg>
