<svg width="19" height="18" viewBox="0 0 19 18" fill="none" xmlns="http://www.w3.org/2000/svg">
<path d="M9.5 17.625C14.2635 17.625 18.125 13.7635 18.125 9C18.125 4.23654 14.2635 0.375 9.5 0.375C4.73654 0.375 0.875 4.23654 0.875 9C0.875 13.7635 4.73654 17.625 9.5 17.625Z" fill="#404C64"/>
<mask id="mask0_4_529" style="mask-type:alpha" maskUnits="userSpaceOnUse" x="0" y="0" width="19" height="18">
<path d="M9.50007 17.5538C14.2242 17.5538 18.0538 13.7242 18.0538 9.00007C18.0538 4.27598 14.2242 0.44635 9.50007 0.44635C4.77598 0.44635 0.94635 4.27598 0.94635 9.00007C0.94635 13.7242 4.77598 17.5538 9.50007 17.5538Z" fill="#CBDFDF"/>
</mask>
<g mask="url(#mask0_4_529)">
<path d="M12.3222 13.3829C12.8296 13.4671 13.0993 13.8686 12.9459 14.3382C12.8943 14.495 13.0092 14.5126 13.0717 14.5669C13.5712 15.0006 14.1593 15.2721 14.738 15.5612C15.023 15.7035 15.2942 15.8664 15.5109 16.1157C15.8278 16.4806 15.8533 16.9081 15.7639 17.3647C15.7341 17.5185 15.6563 17.5712 15.5123 17.5705C13.7951 17.5674 12.0779 17.5682 10.3607 17.5705C10.2174 17.5705 10.1295 17.5269 10.1317 17.3571C10.1367 17.003 10.136 16.6488 10.1375 16.2955C10.365 16.1785 10.4174 15.9926 10.2996 15.7677C10.2094 15.5956 10.0575 15.5299 9.87211 15.5987C9.73834 15.6484 9.64891 15.7417 9.63001 15.897C9.60602 16.0951 9.67654 16.2396 9.85102 16.3245C9.8532 16.5662 9.85757 16.8087 9.85829 17.0504C9.85975 17.5261 9.52605 17.7426 9.08693 17.5613C8.96043 17.5093 8.9786 17.4076 8.97787 17.3112C8.97424 16.967 8.97569 16.6236 8.97497 16.2794C9.19889 16.2366 9.22361 16.0653 9.19816 15.8763C9.17199 15.6836 9.03458 15.5972 8.86955 15.5773C8.6907 15.5559 8.56493 15.6706 8.50458 15.832C8.42752 16.0385 8.4995 16.2022 8.69579 16.297C8.69797 16.6274 8.6907 16.9586 8.70597 17.289C8.71615 17.5093 8.63036 17.5743 8.43116 17.5735C6.73793 17.5689 5.04397 17.5705 3.35075 17.5735C3.19226 17.5735 3.12101 17.52 3.08175 17.3456C2.92035 16.6274 3.14209 16.0951 3.79495 15.7333C4.4042 15.396 5.04543 15.1199 5.60814 14.6954C5.75209 14.5868 6.01673 14.5317 5.8008 14.1922C5.65176 13.9581 6.15559 13.4158 6.47257 13.4235C6.70158 13.7814 6.96185 14.0988 7.38425 14.2082C7.42714 14.2503 7.46349 14.3099 7.51438 14.3329C8.86519 14.9555 10.1993 14.9601 11.5115 14.2082C11.8983 14.0614 12.1906 13.8113 12.3222 13.3852V13.3829Z" fill="#C3E71D"/>
<path d="M11.4628 10.6747C11.4766 10.2166 11.4788 9.75307 11.6103 9.31405C11.6896 9.05094 11.6271 8.8452 11.4991 8.63487C11.1102 7.99469 10.5082 7.6834 9.85241 7.45853C8.82804 7.10747 8.03341 6.46883 7.54412 5.44164C7.51286 5.37586 7.47578 5.31315 7.40963 5.19001C7.05993 6.39387 6.75749 7.53655 6.8949 8.75342C6.90871 8.87426 6.97705 9.00046 6.88254 9.11825C6.58228 8.11171 6.26021 7.10977 6.2922 6.03287C6.32346 5.00109 6.65643 4.09093 7.31293 3.32532C8.42672 2.02661 10.1548 1.9463 11.5587 3.11498C13.108 4.40528 13.9564 7.01493 12.9175 8.82455C12.6231 9.33699 11.4715 10.6747 11.4715 10.6747" fill="#232323"/>
<path d="M6.89353 9.11821C6.98804 9.00042 6.91898 8.87346 6.90589 8.75338C6.76848 7.53651 7.07092 6.3946 7.42062 5.18997C7.48678 5.31311 7.52386 5.37583 7.55512 5.44161C8.0444 6.46879 8.83903 7.10744 9.8634 7.4585C10.5192 7.68336 11.1211 7.99465 11.5101 8.63483C11.6381 8.84516 11.6999 9.0509 11.6213 9.31401C11.4897 9.75303 11.4876 10.2165 11.4738 10.6747C11.4345 10.7198 11.3909 10.7664 11.3545 10.8085C10.7656 11.4762 10.8209 12.0261 10.9765 12.7267C11.0259 13.074 11.1342 13.3998 11.2884 13.7103C11.3669 13.8755 11.4454 14.0407 11.5239 14.2067C10.2116 14.9586 8.87684 14.954 7.52676 14.3314C7.47587 14.3077 7.43952 14.2488 7.39663 14.2067C7.5144 14.0369 7.6031 13.8518 7.66781 13.653C7.80739 13.3608 7.91572 13.0579 7.95062 12.7306C7.97461 12.6197 7.99715 12.5088 8.02332 12.3986C8.15709 11.8395 8.09529 11.428 7.67726 10.9125C7.41698 10.5913 7.26431 10.2395 7.12618 9.8624C7.03748 9.61918 6.97132 9.36678 6.89498 9.11897L6.89353 9.11821Z" fill="#F6A99E"/>
<path d="M7.65491 13.6521C7.59094 13.851 7.50151 14.0361 7.38374 14.2059C6.96134 14.0965 6.70106 13.7791 6.47205 13.4212C6.65526 13.376 6.83047 13.5183 7.01514 13.4449C7.19907 13.6147 7.45208 13.5458 7.65491 13.6521Z" fill="#232323"/>
<path d="M11.5123 14.2059C11.4338 14.0407 11.3552 13.8755 11.2767 13.7103C11.417 13.4587 11.6984 13.5512 11.8925 13.4304C12.0415 13.4701 12.1819 13.4235 12.3229 13.3829C12.192 13.809 11.899 14.0591 11.5123 14.2059Z" fill="#232323"/>
<path d="M7.93916 12.7298C7.90426 13.0572 7.79594 13.36 7.65562 13.6522C7.45351 13.5467 7.19978 13.6155 7.01585 13.4449" fill="#C3E71D"/>
<path d="M11.8923 13.4304C11.6982 13.5513 11.4168 13.4587 11.2765 13.7104C11.1224 13.3998 11.0141 13.0732 10.9646 12.7268C11.3449 12.8575 11.6706 13.0679 11.8923 13.4304Z" fill="#C3E71D"/>
<path d="M8.69576 16.2947C8.49947 16.1999 8.42749 16.0362 8.50456 15.8297C8.5649 15.6683 8.69067 15.5536 8.86952 15.575C9.03455 15.5949 9.17196 15.6813 9.19813 15.8741C9.22358 16.0638 9.19886 16.2343 8.97494 16.2771C8.97203 16.2404 8.96839 16.2045 8.96549 16.1678C8.95531 16.0576 9.02583 15.8855 8.83826 15.894C8.68995 15.9008 8.73284 16.0492 8.73211 16.1555C8.73211 16.2022 8.70812 16.2481 8.69576 16.294V16.2947Z" fill="#232323"/>
<path d="M9.85081 16.323C9.67633 16.2381 9.60581 16.0936 9.6298 15.8955C9.6487 15.741 9.73813 15.6469 9.8719 15.5972C10.0573 15.5284 10.2085 15.5941 10.2994 15.7662C10.4172 15.9911 10.3648 16.177 10.1373 16.294C10.1278 16.229 10.1191 16.164 10.1096 16.0989C10.1351 16.0171 10.1816 15.9276 10.0507 15.8955C9.6647 15.8733 9.98095 16.2129 9.85154 16.323H9.85081Z" fill="#232323"/>
<path d="M10.0508 15.8955C10.1817 15.9277 10.1352 16.0171 10.1097 16.099C10.0901 16.0309 10.0705 15.9636 10.0508 15.8955Z" fill="#C3E71D"/>
<g opacity="0.5">
<path d="M19.2271 12.9632C19.6013 13.0252 19.8002 13.3213 19.6871 13.6677C19.649 13.7833 19.7338 13.7963 19.7799 13.8363C20.1482 14.1562 20.582 14.3564 21.0088 14.5696C21.219 14.6745 21.419 14.7947 21.5787 14.9786C21.8125 15.2476 21.8313 15.563 21.7653 15.8997C21.7433 16.0131 21.686 16.052 21.5798 16.0514C20.3134 16.0492 19.0469 16.0497 17.7805 16.0514C17.6748 16.0514 17.61 16.0193 17.6116 15.8941C17.6153 15.6329 17.6148 15.3717 17.6159 15.1111C17.7837 15.0248 17.8223 14.8878 17.7354 14.7219C17.6689 14.595 17.5569 14.5465 17.4202 14.5973C17.3215 14.6339 17.2556 14.7027 17.2416 14.8173C17.2239 14.9633 17.2759 15.07 17.4046 15.1326C17.4062 15.3108 17.4094 15.4896 17.41 15.6679C17.411 16.0187 17.1649 16.1784 16.8411 16.0447C16.7478 16.0063 16.7612 15.9313 16.7607 15.8602C16.758 15.6064 16.7591 15.3531 16.7585 15.0993C16.9237 15.0677 16.9419 14.9413 16.9231 14.802C16.9038 14.6599 16.8025 14.5961 16.6808 14.5815C16.5489 14.5657 16.4561 14.6503 16.4116 14.7693C16.3548 14.9216 16.4079 15.0423 16.5526 15.1123C16.5542 15.3559 16.5489 15.6002 16.5601 15.8439C16.5676 16.0063 16.5044 16.0543 16.3575 16.0537C15.1087 16.0503 13.8594 16.0514 12.6107 16.0537C12.4938 16.0537 12.4412 16.0142 12.4123 15.8856C12.2933 15.3559 12.4568 14.9633 12.9383 14.6965C13.3876 14.4478 13.8605 14.2442 14.2755 13.9311C14.3817 13.851 14.5768 13.8104 14.4176 13.5599C14.3077 13.3873 14.6792 12.9874 14.913 12.993C15.0819 13.257 15.2738 13.4911 15.5854 13.5718C15.617 13.6028 15.6438 13.6468 15.6813 13.6637C16.6776 14.1229 17.6614 14.1263 18.6292 13.5718C18.9145 13.4635 19.13 13.279 19.2271 12.9648V12.9632Z" fill="#C3E71D"/>
<path d="M18.5931 10.9658C18.6033 10.6279 18.6049 10.2861 18.7019 9.96234C18.7604 9.7683 18.7143 9.61657 18.6199 9.46145C18.333 8.98932 17.8891 8.75974 17.4055 8.59391C16.65 8.335 16.0639 7.864 15.7031 7.10645C15.68 7.05794 15.6527 7.01169 15.6039 6.92087C15.346 7.80872 15.123 8.65144 15.2243 9.54888C15.2345 9.638 15.2849 9.73107 15.2152 9.81794C14.9937 9.07562 14.7562 8.33669 14.7798 7.54248C14.8029 6.78155 15.0484 6.1103 15.5326 5.54567C16.354 4.58787 17.6285 4.52865 18.6639 5.39055C19.8064 6.34214 20.4322 8.26675 19.666 9.60134C19.4488 9.97927 18.5995 10.9658 18.5995 10.9658" fill="#232323"/>
<path d="M15.2235 9.81792C15.2932 9.73105 15.2422 9.63742 15.2326 9.54886C15.1312 8.65142 15.3543 7.80926 15.6122 6.92085C15.661 7.01167 15.6883 7.05792 15.7114 7.10643C16.0722 7.86398 16.6583 8.33498 17.4137 8.59389C17.8974 8.75972 18.3413 8.9893 18.6282 9.46143C18.7225 9.61655 18.7681 9.76828 18.7102 9.96232C18.6132 10.2861 18.6116 10.6279 18.6014 10.9658C18.5724 10.9991 18.5402 11.0335 18.5134 11.0645C18.0791 11.557 18.1199 11.9625 18.2346 12.4792C18.2711 12.7353 18.351 12.9756 18.4646 13.2046C18.5226 13.3264 18.5805 13.4483 18.6384 13.5707C17.6706 14.1252 16.6862 14.1218 15.6905 13.6626C15.6529 13.6451 15.6261 13.6017 15.5945 13.5707C15.6814 13.4455 15.7468 13.309 15.7945 13.1623C15.8974 12.9468 15.9773 12.7235 16.0031 12.482C16.0208 12.4002 16.0374 12.3184 16.0567 12.2372C16.1553 11.8249 16.1098 11.5214 15.8015 11.1412C15.6095 10.9043 15.4969 10.6448 15.395 10.3668C15.3296 10.1874 15.2808 10.0012 15.2245 9.81849L15.2235 9.81792Z" fill="#F6A99E"/>
<path d="M15.7848 13.1617C15.7376 13.3083 15.6716 13.4448 15.5848 13.5701C15.2732 13.4894 15.0813 13.2553 14.9124 12.9913C15.0475 12.958 15.1767 13.063 15.3129 13.0088C15.4486 13.134 15.6352 13.0833 15.7848 13.1617Z" fill="#232323"/>
<path d="M15.9943 12.4815C15.9686 12.7229 15.8887 12.9463 15.7852 13.1618C15.6361 13.0839 15.449 13.1347 15.3134 13.0089" fill="#C3E71D"/>
<path d="M16.5526 15.1106C16.4078 15.0406 16.3548 14.9199 16.4116 14.7676C16.4561 14.6486 16.5489 14.564 16.6808 14.5798C16.8025 14.5945 16.9038 14.6582 16.9231 14.8003C16.9419 14.9402 16.9236 15.066 16.7585 15.0976C16.7564 15.0705 16.7537 15.044 16.7515 15.0169C16.744 14.9357 16.796 14.8088 16.6577 14.815C16.5483 14.8201 16.58 14.9295 16.5794 15.0079C16.5794 15.0423 16.5617 15.0762 16.5526 15.11V15.1106Z" fill="#6E7880"/>
<path d="M17.4046 15.1315C17.276 15.0689 17.2239 14.9623 17.2416 14.8162C17.2556 14.7022 17.3215 14.6328 17.4202 14.5962C17.5569 14.5454 17.6684 14.5939 17.7355 14.7208C17.8223 14.8867 17.7837 15.0237 17.6159 15.11C17.6089 15.0621 17.6025 15.0141 17.5955 14.9662C17.6143 14.9058 17.6486 14.8399 17.5521 14.8162C17.2674 14.7998 17.5006 15.0503 17.4052 15.1315H17.4046Z" fill="#6E7880"/>
<path d="M17.5518 14.8162C17.6483 14.8399 17.6139 14.9059 17.5952 14.9662C17.5807 14.916 17.5662 14.8664 17.5518 14.8162Z" fill="#7FD6DE"/>
</g>
<g opacity="0.5">
<path d="M3.89373 12.9632C4.26798 13.0252 4.4669 13.3213 4.35377 13.6677C4.3157 13.7833 4.40042 13.7963 4.44653 13.8363C4.81488 14.1562 5.24865 14.3564 5.67544 14.5696C5.88562 14.6745 6.08562 14.7947 6.2454 14.9786C6.47917 15.2476 6.49794 15.563 6.43199 15.8997C6.41 16.0131 6.35263 16.052 6.24647 16.0514C4.98002 16.0492 3.71358 16.0497 2.44713 16.0514C2.34151 16.0514 2.27663 16.0193 2.27824 15.8941C2.28199 15.6329 2.28145 15.3717 2.28253 15.1111C2.45035 15.0248 2.48895 14.8878 2.40209 14.7219C2.33561 14.595 2.22355 14.5465 2.08682 14.5973C1.98817 14.6339 1.92222 14.7027 1.90828 14.8173C1.89058 14.9633 1.94259 15.07 2.07127 15.1326C2.07288 15.3108 2.0761 15.4896 2.07664 15.6679C2.07771 16.0187 1.8316 16.1784 1.50775 16.0447C1.41446 16.0063 1.42786 15.9313 1.42733 15.8602C1.42465 15.6064 1.42572 15.3531 1.42518 15.0993C1.59032 15.0677 1.60855 14.9413 1.58979 14.802C1.57049 14.6599 1.46915 14.5961 1.34744 14.5815C1.21554 14.5657 1.12278 14.6503 1.07828 14.7693C1.02144 14.9216 1.07452 15.0423 1.21929 15.1123C1.2209 15.3559 1.21554 15.6002 1.2268 15.8439C1.2343 16.0063 1.17104 16.0543 1.02412 16.0537C-0.224629 16.0503 -1.47392 16.0514 -2.72267 16.0537C-2.83956 16.0537 -2.8921 16.0142 -2.92105 15.8856C-3.04008 15.3559 -2.87655 14.9633 -2.39507 14.6965C-1.94575 14.4478 -1.47284 14.2442 -1.05784 13.9311C-0.951682 13.851 -0.756514 13.8104 -0.915758 13.5599C-1.02567 13.3873 -0.654105 12.9874 -0.420332 12.993C-0.251437 13.257 -0.0594866 13.4911 0.252031 13.5718C0.283666 13.6028 0.310474 13.6468 0.348006 13.6637C1.34422 14.1229 2.3281 14.1263 3.2959 13.5718C3.58114 13.4635 3.79669 13.279 3.89373 12.9648V12.9632Z" fill="#C3E71D"/>
<path d="M3.25975 10.9658C3.26994 10.6279 3.27155 10.2861 3.36859 9.96234C3.42704 9.7683 3.38093 9.61657 3.28656 9.46145C2.99971 8.98932 2.55575 8.75974 2.07212 8.59391C1.31665 8.335 0.730612 7.864 0.369766 7.10645C0.34671 7.05794 0.319366 7.01169 0.270574 6.92087C0.0126734 7.80872 -0.210376 8.65144 -0.109038 9.54888C-0.0988511 9.638 -0.0484506 9.73107 -0.118153 9.81794C-0.339594 9.07562 -0.577119 8.33669 -0.553528 7.54248C-0.530472 6.78155 -0.284904 6.1103 0.199262 5.54567C1.02068 4.58787 2.29517 4.52865 3.33053 5.39055C4.47311 6.34214 5.09883 8.26675 4.33264 9.60134C4.11549 9.97927 3.26618 10.9658 3.26618 10.9658" fill="#232323"/>
<path d="M-0.109866 9.81792C-0.0401637 9.73105 -0.0911002 9.63742 -0.100751 9.54886C-0.202088 8.65142 0.0209603 7.80926 0.278861 6.92085C0.327653 7.01167 0.354998 7.05792 0.378053 7.10643C0.738899 7.86398 1.32494 8.33498 2.08041 8.59389C2.56404 8.75972 3.00799 8.9893 3.29485 9.46143C3.38921 9.61655 3.43479 9.76828 3.37688 9.96232C3.27983 10.2861 3.27822 10.6279 3.26804 10.9658C3.23908 10.9991 3.20691 11.0335 3.1801 11.0645C2.7458 11.557 2.78655 11.9625 2.90129 12.4792C2.93775 12.7353 3.01764 12.9756 3.13131 13.2046C3.18922 13.3264 3.24713 13.4483 3.30503 13.5707C2.33724 14.1252 1.35282 14.1218 0.357142 13.6626C0.31961 13.6451 0.292801 13.6017 0.261167 13.5707C0.348027 13.4455 0.413441 13.309 0.46116 13.1623C0.564106 12.9468 0.643996 12.7235 0.669733 12.482C0.687426 12.4002 0.704048 12.3184 0.72335 12.2372C0.822006 11.8249 0.776431 11.5214 0.468131 11.1412C0.27618 10.9043 0.163583 10.6448 0.0617097 10.3668C-0.0037037 10.1874 -0.0524957 10.0012 -0.108794 9.81849L-0.109866 9.81792Z" fill="#F6A99E"/>
<path d="M3.2964 13.5701C3.23849 13.4483 3.18059 13.3264 3.12268 13.2046C3.22616 13.019 3.43366 13.0872 3.57682 12.9981C3.68674 13.0275 3.79022 12.993 3.89424 12.9632C3.79772 13.2773 3.58165 13.4618 3.2964 13.5701Z" fill="#232323"/>
<path d="M3.57663 12.9981C3.43347 13.0873 3.22597 13.019 3.12249 13.2046C3.00882 12.9756 2.92893 12.7347 2.89247 12.4792C3.17289 12.5757 3.4131 12.7308 3.57663 12.9981Z" fill="#C3E71D"/>
<path d="M1.21927 15.1106C1.07451 15.0406 1.02142 14.9199 1.07826 14.7676C1.12276 14.6486 1.21552 14.564 1.34742 14.5798C1.46913 14.5945 1.57047 14.6582 1.58977 14.8003C1.60854 14.9402 1.59031 15.066 1.42516 15.0976C1.42302 15.0705 1.42034 15.044 1.41819 15.0169C1.41069 14.9357 1.4627 14.8088 1.32436 14.815C1.21498 14.8201 1.24662 14.9295 1.24608 15.0079C1.24608 15.0423 1.22839 15.0762 1.21927 15.11V15.1106Z" fill="#6E7880"/>
<path d="M2.0713 15.1315C1.94262 15.0689 1.89061 14.9623 1.9083 14.8162C1.92224 14.7022 1.98819 14.6328 2.08685 14.5962C2.22357 14.5454 2.3351 14.5939 2.40212 14.7208C2.48898 14.8867 2.45037 15.0237 2.28255 15.11C2.27558 15.0621 2.26915 15.0141 2.26218 14.9662C2.28094 14.9058 2.31526 14.8399 2.21875 14.8162C1.93404 14.7998 2.16727 15.0503 2.07183 15.1315H2.0713Z" fill="#6E7880"/>
<path d="M2.21841 14.8162C2.31493 14.8399 2.28061 14.9059 2.26184 14.9662C2.24737 14.916 2.23289 14.8664 2.21841 14.8162Z" fill="#7FD6DE"/>
</g>
</g>
</svg>
