<svg width="374" height="86" viewBox="0 0 374 86" fill="none" xmlns="http://www.w3.org/2000/svg">
<mask id="mask0_1_944" style="mask-type:alpha" maskUnits="userSpaceOnUse" x="0" y="0" width="187" height="86">
<rect width="187" height="86" fill="#C3E71D"/>
<rect x="0.15" y="0.15" width="186.7" height="85.7" stroke="#B3B3B3" stroke-opacity="0.1" stroke-width="0.3"/>
</mask>
<g mask="url(#mask0_1_944)">
<g opacity="0.8">
<path d="M-5 102.624C7.1425 105.568 19.6619 98.2779 27.7955 88.8268C38.2021 76.7359 43.9759 61.6957 55.2428 50.2032C71.0092 34.121 91.5312 30.1573 110.368 19.4966C117.118 15.6762 121.837 9.5337 128.409 5.69826C134.826 1.95177 142.826 1.4631 150.048 2.4081C161.918 3.9596 174.012 7.21625 185.404 10.6878" stroke="#B3B3B3" stroke-opacity="0.1" stroke-miterlimit="10" stroke-linecap="round" stroke-dasharray="3 3"/>
<path d="M127.037 6.54979C111.051 10.2928 94.7501 5.11035 80.8775 -3.643C67.0036 -12.3964 56.8882 -26.8613 53.4522 -42.8581C52.8214 -45.7959 52.3853 -48.84 50.9567 -51.4855C49.528 -54.1322 46.8087 -56.3514 43.7983 -56.1643" stroke="#B3B3B3" stroke-opacity="0.1" stroke-miterlimit="10" stroke-linecap="round" stroke-dasharray="3 3"/>
<path d="M82.4972 32.4311C68.8658 44.321 68.0424 51.4431 70.3026 60.4679C72.0107 67.2874 76.0427 73.2704 78.7412 79.7653C86.5965 98.6791 81.8386 122.113 67.2214 136.497" stroke="#B3B3B3" stroke-opacity="0.1" stroke-miterlimit="10" stroke-linecap="round" stroke-dasharray="3 3"/>
<path d="M80.587 85.0846C88.89 86.7932 97.6777 82.1295 105.059 78.9017C119.378 72.6402 135.179 70.1553 150.756 70.5781C167.055 71.0194 181.379 74.7659 195.999 81.8083" stroke="#B3B3B3" stroke-opacity="0.1" stroke-miterlimit="10" stroke-linecap="round" stroke-dasharray="3 3"/>
<path d="M75.3458 -7.58475C63.2091 1.54868 46.8838 5.50888 32.2017 1.5533C27.6339 0.322952 23.2146 -1.55779 18.5192 -2.14697C11.8432 -2.98453 4.85876 -1.02984 -0.403641 3.14755" stroke="#B3B3B3" stroke-opacity="0.1" stroke-miterlimit="10" stroke-linecap="round" stroke-dasharray="3 3"/>
<path d="M123.921 72.9137C130.931 76.89 137.528 82.4768 143.162 88.1353C148.428 93.4252 155.237 95.9563 162.366 97.7412" stroke="#B3B3B3" stroke-opacity="0.1" stroke-miterlimit="10" stroke-linecap="round" stroke-dasharray="3 3"/>
<path d="M147.888 2.16996C147.777 9.04834 147.247 15.7892 145.339 22.4019C144.641 24.8233 143.787 27.2794 142.123 29.1763C137.706 34.2109 129.432 33.5744 124.141 37.6894C121.235 39.9502 110.582 52.6372 113.742 63.0784" stroke="#B3B3B3" stroke-opacity="0.1" stroke-miterlimit="10" stroke-linecap="round" stroke-dasharray="3 3"/>
<path d="M105.324 6.62881C101.353 -0.0185123 97.8087 -6.4602 95.0604 -13.6955C92.312 -20.9309 90.8474 -28.8144 92.1103 -36.4471C92.8721 -41.0508 94.6104 -45.5089 94.7415 -50.1727C94.8203 -52.9926 94.2046 -56.0078 92.2019 -58.0018" stroke="#B3B3B3" stroke-opacity="0.1" stroke-miterlimit="10" stroke-linecap="round" stroke-dasharray="3 3"/>
<path d="M50.0443 56.1883C44.1882 56.5811 37.2698 56.8884 32.2359 53.8801C28.5552 51.6793 25.51 47.7365 21.2171 47.666" stroke="#B3B3B3" stroke-opacity="0.1" stroke-miterlimit="10" stroke-linecap="round" stroke-dasharray="3 3"/>
<path d="M-0.759354 38.2686C6.09407 37.4287 12.9463 36.5877 19.7997 35.7478C26.1545 34.9692 32.812 34.6931 39.0195 33.0861C47.755 30.8241 52.5756 25.1634 56.2017 17.2672C59.3977 10.3092 61.8781 2.54239 68.219 -2.30159" stroke="#B3B3B3" stroke-opacity="0.1" stroke-miterlimit="10" stroke-linecap="round" stroke-dasharray="3 3"/>
<path d="M30.6509 85.3C31.3525 90.0088 32.2593 94.6968 31.7769 99.468C31.4279 102.919 30.557 106.318 29.2002 109.512C28.0684 112.178 25.7492 115.691 28.0916 118.427" stroke="#B3B3B3" stroke-opacity="0.1" stroke-miterlimit="10" stroke-linecap="round" stroke-dasharray="3 3"/>
<path d="M167.425 5.711C164.494 3.5241 162.773 -0.157688 161.126 -3.31268C156.601 -11.9702 148.391 -19.0461 138.493 -20.5213C135.477 -20.9707 132.398 -20.8968 129.391 -21.4028C127.34 -21.7482 125.271 -22.3963 123.547 -23.5862C122.125 -24.5682 119.624 -26.4836 119.39 -28.3054" stroke="#B3B3B3" stroke-opacity="0.1" stroke-miterlimit="10" stroke-linecap="round" stroke-dasharray="3 3"/>
<path d="M74.8617 73.4469C74.8234 81.3372 72.4845 88.7701 67.1316 94.5857C63.3547 98.6903 58.5225 101.799 55.1538 106.242C50.9594 111.774 49.4414 118.794 47.4991 125.451C45.5567 132.107 42.7852 139.024 37.0856 143" stroke="#B3B3B3" stroke-opacity="0.1" stroke-miterlimit="10" stroke-linecap="round" stroke-dasharray="3 3"/>
<path d="M124.881 37.1426C115.929 38.8905 106.785 39.6565 97.6653 39.4243C95.3518 39.3653 92.9989 39.2464 90.7585 39.8217C88.5181 40.397 86.3554 41.8029 85.5112 43.9494" stroke="#B3B3B3" stroke-opacity="0.1" stroke-miterlimit="10" stroke-linecap="round" stroke-dasharray="3 3"/>
<path d="M135.568 33.1128C135.755 38.2664 140.558 41.5392 144.781 43.2825C149.122 45.0743 153.957 46.1822 158.674 45.7709C163.525 45.3481 167.77 42.475 172.574 41.56C177.194 40.6797 181.961 41.5473 185.754 44.3742" stroke="#B3B3B3" stroke-opacity="0.1" stroke-miterlimit="10" stroke-linecap="round" stroke-dasharray="3 3"/>
</g>
</g>
<mask id="mask1_1_944" style="mask-type:alpha" maskUnits="userSpaceOnUse" x="187" y="0" width="187" height="86">
<rect width="187" height="86" transform="matrix(-1 0 0 1 374 0)" fill="#C3E71D"/>
<rect x="-0.15" y="0.15" width="186.7" height="85.7" transform="matrix(-1 0 0 1 373.7 0)" stroke="#B3B3B3" stroke-opacity="0.1" stroke-width="0.3"/>
</mask>
<g mask="url(#mask1_1_944)">
<g opacity="0.8">
<path d="M378.999 102.624C366.857 105.568 354.337 98.2779 346.203 88.8268C335.797 76.7359 330.023 61.6957 318.756 50.2032C302.99 34.121 282.468 30.1573 263.631 19.4966C256.881 15.6762 252.162 9.5337 245.59 5.69826C239.173 1.95177 231.173 1.4631 223.951 2.4081C212.081 3.9596 199.987 7.21625 188.595 10.6878" stroke="#B3B3B3" stroke-opacity="0.1" stroke-miterlimit="10" stroke-linecap="round" stroke-dasharray="3 3"/>
<path d="M246.962 6.54979C262.948 10.2928 279.249 5.11035 293.122 -3.643C306.995 -12.3964 317.111 -26.8613 320.547 -42.8581C321.178 -45.7959 321.614 -48.84 323.042 -51.4855C324.471 -54.1322 327.19 -56.3514 330.201 -56.1643" stroke="#B3B3B3" stroke-opacity="0.1" stroke-miterlimit="10" stroke-linecap="round" stroke-dasharray="3 3"/>
<path d="M291.502 32.4311C305.133 44.321 305.957 51.4431 303.696 60.4679C301.988 67.2874 297.956 73.2704 295.258 79.7653C287.402 98.6791 292.16 122.113 306.778 136.497" stroke="#B3B3B3" stroke-opacity="0.1" stroke-miterlimit="10" stroke-linecap="round" stroke-dasharray="3 3"/>
<path d="M293.412 85.0846C285.109 86.7932 276.321 82.1295 268.94 78.9017C254.621 72.6402 238.82 70.1553 223.243 70.5781C206.944 71.0194 192.62 74.7659 178 81.8083" stroke="#B3B3B3" stroke-opacity="0.1" stroke-miterlimit="10" stroke-linecap="round" stroke-dasharray="3 3"/>
<path d="M298.653 -7.58475C310.79 1.54868 327.115 5.50888 341.797 1.5533C346.365 0.322952 350.784 -1.55779 355.48 -2.14697C362.156 -2.98453 369.14 -1.02984 374.403 3.14755" stroke="#B3B3B3" stroke-opacity="0.1" stroke-miterlimit="10" stroke-linecap="round" stroke-dasharray="3 3"/>
<path d="M250.078 72.9137C243.068 76.89 236.471 82.4768 230.837 88.1353C225.571 93.4252 218.762 95.9563 211.633 97.7412" stroke="#B3B3B3" stroke-opacity="0.1" stroke-miterlimit="10" stroke-linecap="round" stroke-dasharray="3 3"/>
<path d="M226.111 2.16996C226.222 9.04834 226.752 15.7892 228.66 22.4019C229.358 24.8233 230.212 27.2794 231.876 29.1763C236.293 34.2109 244.567 33.5744 249.858 37.6894C252.764 39.9502 263.417 52.6372 260.257 63.0784" stroke="#B3B3B3" stroke-opacity="0.1" stroke-miterlimit="10" stroke-linecap="round" stroke-dasharray="3 3"/>
<path d="M268.675 6.62881C272.646 -0.0185123 276.19 -6.4602 278.939 -13.6955C281.687 -20.9309 283.152 -28.8144 281.889 -36.4471C281.127 -41.0508 279.389 -45.5089 279.258 -50.1727C279.179 -52.9926 279.794 -56.0078 281.797 -58.0018" stroke="#B3B3B3" stroke-opacity="0.1" stroke-miterlimit="10" stroke-linecap="round" stroke-dasharray="3 3"/>
<path d="M323.955 56.1883C329.811 56.5811 336.729 56.8884 341.763 53.8801C345.444 51.6793 348.489 47.7365 352.782 47.666" stroke="#B3B3B3" stroke-opacity="0.1" stroke-miterlimit="10" stroke-linecap="round" stroke-dasharray="3 3"/>
<path d="M374.758 38.2686C367.905 37.4287 361.053 36.5877 354.199 35.7478C347.845 34.9692 341.187 34.6931 334.98 33.0861C326.244 30.8241 321.423 25.1634 317.797 17.2672C314.601 10.3092 312.121 2.54239 305.78 -2.30159" stroke="#B3B3B3" stroke-opacity="0.1" stroke-miterlimit="10" stroke-linecap="round" stroke-dasharray="3 3"/>
<path d="M343.348 85.3C342.647 90.0088 341.74 94.6968 342.222 99.468C342.571 102.919 343.442 106.318 344.799 109.512C345.931 112.178 348.25 115.691 345.907 118.427" stroke="#B3B3B3" stroke-opacity="0.1" stroke-miterlimit="10" stroke-linecap="round" stroke-dasharray="3 3"/>
<path d="M206.574 5.711C209.505 3.5241 211.226 -0.157688 212.873 -3.31268C217.398 -11.9702 225.609 -19.0461 235.506 -20.5213C238.522 -20.9707 241.601 -20.8968 244.608 -21.4028C246.659 -21.7482 248.728 -22.3963 250.452 -23.5862C251.874 -24.5682 254.375 -26.4836 254.609 -28.3054" stroke="#B3B3B3" stroke-opacity="0.1" stroke-miterlimit="10" stroke-linecap="round" stroke-dasharray="3 3"/>
<path d="M299.137 73.4469C299.176 81.3372 301.515 88.7701 306.867 94.5857C310.644 98.6903 315.477 101.799 318.845 106.242C323.04 111.774 324.558 118.794 326.5 125.451C328.442 132.107 331.214 139.024 336.913 143" stroke="#B3B3B3" stroke-opacity="0.1" stroke-miterlimit="10" stroke-linecap="round" stroke-dasharray="3 3"/>
<path d="M249.118 37.1426C258.07 38.8905 267.214 39.6565 276.334 39.4243C278.647 39.3653 281 39.2464 283.241 39.8217C285.481 40.397 287.644 41.8029 288.488 43.9494" stroke="#B3B3B3" stroke-opacity="0.1" stroke-miterlimit="10" stroke-linecap="round" stroke-dasharray="3 3"/>
<path d="M238.431 33.1128C238.244 38.2664 233.441 41.5392 229.218 43.2825C224.877 45.0743 220.042 46.1822 215.325 45.7709C210.474 45.3481 206.229 42.475 201.425 41.56C196.805 40.6797 192.038 41.5473 188.245 44.3742" stroke="#B3B3B3" stroke-opacity="0.1" stroke-miterlimit="10" stroke-linecap="round" stroke-dasharray="3 3"/>
</g>
</g>
</svg>
