<svg width="23" height="22" viewBox="0 0 23 22" fill="none" xmlns="http://www.w3.org/2000/svg">
<path d="M4.5 18V18C4.5 19.6569 5.84315 21 7.5 21H15.5C17.1569 21 18.5 19.6569 18.5 18V18M4.5 4V4C4.5 2.34315 5.84315 1 7.5 1H15.5C17.1569 1 18.5 2.34315 18.5 4V4M13.5031 12.3313L11.9875 13.3417C11.1795 13.8804 10.7754 14.1497 10.4404 14.1297C10.1485 14.1123 9.87889 13.968 9.70249 13.7348C9.5 13.4671 9.5 12.9815 9.5 12.0104V9.98963C9.5 9.01846 9.5 8.53288 9.70249 8.26521C9.87889 8.03202 10.1485 7.88772 10.4404 7.87029C10.7754 7.85029 11.1795 8.11964 11.9875 8.65835L13.5031 9.66872C14.1708 10.1138 14.5046 10.3364 14.6209 10.6169C14.7227 10.8622 14.7227 11.1378 14.6209 11.3831C14.5046 11.6636 14.1708 11.8862 13.5031 12.3313ZM7.9 18H15.1C17.3402 18 18.4603 18 19.316 17.564C20.0686 17.1805 20.6805 16.5686 21.064 15.816C21.5 14.9603 21.5 13.8402 21.5 11.6V10.4C21.5 8.15979 21.5 7.03968 21.064 6.18404C20.6805 5.43139 20.0686 4.81947 19.316 4.43597C18.4603 4 17.3402 4 15.1 4H7.9C5.65979 4 4.53968 4 3.68404 4.43597C2.93139 4.81947 2.31947 5.43139 1.93597 6.18404C1.5 7.03968 1.5 8.15979 1.5 10.4V11.6C1.5 13.8402 1.5 14.9603 1.93597 15.816C2.31947 16.5686 2.93139 17.1805 3.68404 17.564C4.53968 18 5.65979 18 7.9 18Z" stroke="#E6E6E6" stroke-width="1.5" stroke-linecap="round" stroke-linejoin="round"/>
</svg>
