<svg width="18" height="14" viewBox="0 0 18 14" fill="none" xmlns="http://www.w3.org/2000/svg">
<path d="M2.5766 6.76841C3.01479 7.32345 2.92184 7.44119 3.36003 7.99623C3.79823 8.55127 3.93101 8.37467 4.3692 8.92971C4.8074 9.48476 4.81404 9.47635 5.25223 10.0314C5.69042 10.5864 5.551 10.763 5.99583 11.3181C6.44066 11.8731 6.30787 12.3609 6.93197 12.3357C7.59589 12.3104 7.3768 11.7386 7.84819 11.1415C8.31958 10.5444 8.28638 10.5107 8.75777 9.91365C9.22916 9.31656 9.25571 9.35861 9.7271 8.76152C10.1985 8.16443 10.2914 8.28216 10.7562 7.68507C11.2209 7.08798 11.1877 7.03752 11.6591 6.44043C12.1305 5.84334 12.177 5.90221 12.6484 5.31352C13.1198 4.72484 13.0202 4.59029 13.4916 3.99319C13.963 3.3961 13.9696 3.40451 14.441 2.80742C14.9124 2.21033 14.9522 2.26079 15.4236 1.6637" stroke="white" stroke-width="3.15748" stroke-linecap="round" stroke-linejoin="round"/>
</svg>
