<svg width="23" height="24" viewBox="0 0 23 24" fill="none" xmlns="http://www.w3.org/2000/svg">
<path d="M3.15891 0.75L2.99918 1.86384C2.89404 2.59941 2.31584 3.17761 1.58027 3.28275L0.466431 3.44248V4.11517L1.58027 4.2749C2.31584 4.38004 2.89404 4.95824 2.99918 5.69381L3.15891 6.80765H3.8316L3.99133 5.69381C4.09647 4.95824 4.67467 4.38004 5.41024 4.2749L6.52408 4.11517V3.44248L5.41024 3.28275C4.67467 3.17761 4.09647 2.59941 3.99133 1.86384L3.8316 0.75H3.15891ZM10.851 0.75L10.7487 1.4658C10.6812 1.93873 10.3098 2.311 9.83686 2.3785L9.12021 2.48076V2.91345L9.83601 3.0157C10.3089 3.0832 10.6812 3.45463 10.7487 3.92756L10.851 4.6442H11.2837L11.3859 3.92841C11.4534 3.45548 11.8248 3.0832 12.2978 3.0157L13.0144 2.91345V2.48076L12.2986 2.3785C11.8257 2.311 11.4534 1.93957 11.3859 1.46664L11.2837 0.75H10.851ZM18.4999 1.61707C18.3465 1.62429 18.2245 1.67145 18.1391 1.75651L18.1374 1.7582C11.5182 8.41143 7.86454 12.1083 0.973488 18.9221C0.297628 19.598 0.297628 20.6945 0.973488 21.3703L2.34592 22.7428C3.02178 23.4191 4.11746 23.4191 4.79332 22.7428L21.9572 5.57888L21.9589 5.57719C22.135 5.40097 22.1465 5.07141 21.9912 4.64664C21.8359 4.22187 21.5239 3.72922 21.1103 3.2556C20.6966 2.78199 20.2078 2.35787 19.7302 2.05807C19.2526 1.75828 18.8169 1.60209 18.4999 1.61707ZM18.6656 3.67826C19.0413 4.18646 19.5306 4.67524 20.0389 5.04985L13.9542 11.1345L12.5809 9.7621L18.6656 3.67826ZM18.2067 15.0287L18.0022 16.4612C17.8672 17.407 17.1235 18.1507 16.1776 18.2857L14.7452 18.4903V19.3556L16.1776 19.5601C17.1235 19.6951 17.8672 20.4389 18.0022 21.3847L18.2067 22.8172H19.0721L19.2766 21.3847C19.4116 20.4389 20.1553 19.6951 21.1011 19.5601L22.5336 19.3556V18.4903L21.1011 18.2857C20.1553 18.1507 19.4116 17.407 19.2766 16.4612L19.0721 15.0287H18.2067Z" fill="#E6E6E6"/>
</svg>
